<?xml version="1.0" standalone="no"?><!DOCTYPE svg PUBLIC "-//W3C//DTD SVG 1.1//EN" "http://www.w3.org/Graphics/SVG/1.1/DTD/svg11.dtd"><svg t="1524021466578" class="icon" style="" viewBox="0 0 1024 1024" version="1.1" xmlns="http://www.w3.org/2000/svg" p-id="7535" xmlns:xlink="http://www.w3.org/1999/xlink" width="200" height="200"><defs><style type="text/css"></style></defs><path d="M512 512a221.090909 221.090909 0 1 1 221.090909-221.090909A221.556364 221.556364 0 0 1 512 512z m0-396.101818a174.545455 174.545455 0 1 0 174.545455 174.545454A175.010909 175.010909 0 0 0 512 115.898182z" fill="#999999" p-id="7536"></path><path d="M906.705455 889.018182h-139.636364v-46.545455h100.072727l-161.047273-279.272727a434.734545 434.734545 0 0 1-386.792727 0l-161.047273 279.272727h131.723637v46.545455H117.294545a23.272727 23.272727 0 0 1-20.014545-34.909091l192.232727-333.265455A23.272727 23.272727 0 0 1 321.163636 512a387.723636 387.723636 0 0 0 381.207273 0 22.807273 22.807273 0 0 1 17.687273-2.327273 23.272727 23.272727 0 0 1 13.963636 10.705455l192.232727 333.265454a23.272727 23.272727 0 0 1-20.014545 34.909091zM733.090909 314.181818h-442.181818v-23.272727a221.090909 221.090909 0 1 1 442.647273 0z m-394.24-46.545454h346.298182a174.545455 174.545455 0 0 0-346.298182 0z" fill="#999999" p-id="7537"></path><path d="M202.472727 267.636364h111.709091v46.545454h-111.709091z" fill="#999999" p-id="7538"></path><path d="M698.181818 954.647273H363.054545a23.272727 23.272727 0 0 1-23.272727-23.272728v-131.723636a23.272727 23.272727 0 0 1 23.272727-23.272727H698.181818a23.272727 23.272727 0 0 1 23.272727 23.272727V930.909091a23.272727 23.272727 0 0 1-23.272727 23.738182z m-310.458182-46.545455h287.185455v-85.178182H386.327273z" fill="#999999" p-id="7539"></path><path d="M640.930909 824.32H418.909091a23.272727 23.272727 0 0 1-23.272727-23.272727V698.181818a23.272727 23.272727 0 0 1 23.272727-23.272727h222.021818a23.272727 23.272727 0 0 1 23.272727 23.272727v101.934546a23.272727 23.272727 0 0 1-23.272727 24.203636z m-198.749091-46.545455h175.476364v-55.38909H441.716364z" fill="#999999" p-id="7540"></path></svg>