<!-- Generated by IcoMoon.io -->
<svg version="1.1" xmlns="http://www.w3.org/2000/svg" width="1024" height="1024" viewBox="0 0 1024 1024">
<title></title>
<g id="icomoon-ignore">
</g>
<path fill="#000" d="M495.933 688.636c4.401 4.401 10.132 6.55 15.965 6.55 5.322 0 10.643-1.944 14.941-5.731 1.33-0.819 2.456-1.842 3.582-2.968l144.707-144.707c8.801-8.801 8.801-23.026 0-31.827s-23.436-8.801-32.237 0l-109.093 108.684v-338.638c0-12.485-10.029-22.514-22.514-22.514s-22.514 10.029-22.514 22.514v338.638l-106.125-106.637c-8.801-8.801-22.822-8.801-31.623 0s-8.699 23.026 0.102 31.827l144.809 144.809z"></path>
<path fill="#000" d="M740.931 718.008h-460.524c-12.485 0-22.514 10.029-22.514 22.514s10.029 22.514 22.514 22.514h460.524c12.485 0 22.514-10.029 22.514-22.514s-10.029-22.514-22.514-22.514z"></path>
</svg>
