<svg class="icon" style="width: 1em; height: 1em;vertical-align: middle;fill: currentColor;overflow: hidden;" viewBox="0 0 1024 1024" version="1.1" xmlns="http://www.w3.org/2000/svg" p-id="11976"><path d="M945.683692 88.615385 78.296615 88.615385C35.131077 88.615385 0 129.083077 0 178.845538L0 845.154462C0 894.916923 35.131077 935.384615 78.296615 935.384615L945.683692 935.384615C988.868923 935.384615 1024 894.916923 1024 845.154462L1024 178.845538C1024 129.083077 988.868923 88.615385 945.683692 88.615385L945.683692 88.615385ZM78.296615 139.204923 948.145231 145.073231C958.109538 145.073231 967.108923 152.398769 967.108923 163.879385L967.108923 314.427077 512 540.219077 56.891077 314.427077 56.891077 182.705231C56.891077 171.224615 68.332308 139.204923 78.296615 139.204923L78.296615 139.204923ZM948.145231 878.926769 75.854769 878.926769C65.890462 878.926769 56.891077 852.775385 56.891077 841.294769L56.891077 389.691077 505.383385 594.077538C505.540923 594.156308 505.698462 594.215385 505.856 594.274462 506.033231 594.372923 506.210462 594.432 506.368 594.510769 506.978462 594.766769 507.588923 595.003077 508.179692 595.219692L508.179692 595.219692C508.829538 595.436308 509.479385 595.633231 510.129231 595.810462 510.247385 595.830154 510.365538 595.869538 510.483692 595.889231 511.803077 596.224 513.122462 596.440615 514.441846 596.558769 514.579692 596.578462 514.697846 596.598154 514.816 596.598154 515.485538 596.657231 516.155077 596.676923 516.804923 596.676923L516.824615 596.676923 516.824615 596.676923C517.494154 596.676923 518.144 596.657231 518.813538 596.598154 518.951385 596.598154 519.069538 596.578462 519.207385 596.558769 520.546462 596.440615 521.865846 596.204308 523.185231 595.889231 523.323077 595.849846 523.441231 595.830154 523.559385 595.790769 524.839385 595.456 526.099692 595.003077 527.36 594.471385 527.517538 594.412308 527.675077 594.333538 527.832615 594.254769 528.009846 594.176 528.206769 594.097231 528.403692 593.998769L963.761231 384.984615 967.108923 841.294769C967.108923 852.775385 977.073231 878.926769 967.108923 878.926769L948.145231 878.926769Z" p-id="11977"></path></svg>