<svg class="icon" style="width: 1em; height: 1em;vertical-align: middle;fill: currentColor;overflow: hidden;" viewBox="0 0 1024 1024" version="1.1" xmlns="http://www.w3.org/2000/svg" p-id="6065"><path d="M270.848 988.16h483.328c78.336 0 142.336-66.048 142.336-144.384V530.944c0-78.336-61.44-142.336-143.36-142.336v-115.2C752.64 139.264 650.752 35.84 519.68 35.84h-4.608c-134.656 0-244.224 106.496-244.224 238.08 0 15.872 12.8 28.16 28.672 28.16s28.16-12.288 28.16-28.16c0-98.816 85.504-181.76 186.88-181.76h4.608c99.84 0 176.64 78.848 176.64 181.248V389.12h-424.96c-78.336 0-142.848 64-142.848 142.336v312.832c0 77.824 64.512 143.872 142.848 143.872zM839.68 841.728c0 47.104-38.4 84.992-84.992 84.992H269.824c-47.104 0-85.504-38.4-85.504-84.992V530.944c0-47.104 38.4-85.504 85.504-85.504h484.864c47.104 0 84.992 38.4 84.992 85.504v310.784z" fill="" p-id="6066"></path><path d="M471.04 728.064v60.928c0 22.528 16.896 40.448 39.424 40.448h3.584c22.528 0 38.912-17.92 38.912-40.448v-60.928c30.72-14.848 45.568-43.008 45.568-75.776 0-48.128-38.4-87.04-86.528-87.04-48.128 0-86.016 38.912-86.016 87.04 0 32.256 19.456 60.928 45.056 75.776z" fill="" p-id="6067"></path></svg>